<svg width="31" xmlns="http://www.w3.org/2000/svg" height="31" id="screenshot-e626f4e5-2a37-80b7-8006-734b5ca649c3" viewBox="0 0 31 31" xmlns:xlink="http://www.w3.org/1999/xlink" fill="none" version="1.1"><g id="shape-e626f4e5-2a37-80b7-8006-734b5ca649c3" height="800" width="800" rx="0" ry="0" style="fill: rgb(0, 0, 0);"><g id="shape-e626f4e5-2a37-80b7-8006-734b5ca79ae9" style="display: none;"><g class="fills" id="fills-e626f4e5-2a37-80b7-8006-734b5ca79ae9"><rect width="31" height="31" x="0" transform="matrix(1.000000, 0.000000, 0.000000, 1.000000, 0.000000, 0.000000)" style="fill: none;" ry="0" fill="none" rx="0" y="0"/></g><g fill="none" id="strokes-40ddfdc8-4770-8016-8006-73565d205963-e626f4e5-2a37-80b7-8006-734b5ca79ae9" class="strokes"><g class="inner-stroke-shape" transform="matrix(1.000000, 0.000000, 0.000000, 1.000000, 0.000000, 0.000000)"><defs><clipPath id="inner-stroke-render-2-e626f4e5-2a37-80b7-8006-734b5ca79ae9-0"><use href="#stroke-shape-render-2-e626f4e5-2a37-80b7-8006-734b5ca79ae9-0"/></clipPath><rect rx="0" ry="0" x="0" y="0" width="31" height="31" id="stroke-shape-render-2-e626f4e5-2a37-80b7-8006-734b5ca79ae9-0" style="fill: none; stroke-width: 2; stroke: rgb(255, 255, 255); stroke-opacity: 1;"/></defs><use href="#stroke-shape-render-2-e626f4e5-2a37-80b7-8006-734b5ca79ae9-0" clip-path="url('#inner-stroke-render-2-e626f4e5-2a37-80b7-8006-734b5ca79ae9-0')"/></g></g></g><g id="shape-e626f4e5-2a37-80b7-8006-734b5ca820d3"><g class="fills" id="fills-e626f4e5-2a37-80b7-8006-734b5ca820d3"><path d="M5.166748046875,7.75C5.166748046875,7.03662109375,5.7449951171875,6.458343505859375,6.458251953125,6.458343505859375L8.1800537109375,6.458343505859375L8.7470703125,4.758514404296875C8.9229736328125,4.23077392578125,9.416748046875,3.8748779296875,9.972900390625,3.875L16.791748046875,3.875C16.791748046875,3.16162109375,17.3699951171875,2.583343505859375,18.083251953125,2.583343505859375L19.375,2.583343505859375C20.08837890625,2.583343505859375,20.666748046875,3.16162109375,20.666748046875,3.875L21.027099609375,3.875C21.583251953125,3.8748779296875,22.0770263671875,4.23077392578125,22.2529296875,4.758514404296875L22.8199462890625,6.458343505859375L24.541748046875,6.458343505859375C25.2550048828125,6.458343505859375,25.833251953125,7.03662109375,25.833251953125,7.75C25.833251953125,8.46337890625,25.2550048828125,9.041656494140625,24.541748046875,9.041656494140625L6.458251953125,9.041656494140625C5.7449951171875,9.041656494140625,5.166748046875,8.46337890625,5.166748046875,7.75ZM19.558349609375,28.416656494140625L11.441650390625,28.416656494140625C10.80419921875,28.41644287109375,10.26220703125,27.9512939453125,10.1654052734375,27.32135009765625L7.75,11.625L23.25,11.625L20.8345947265625,27.32135009765625C20.73779296875,27.9512939453125,20.19580078125,28.41644287109375,19.558349609375,28.416656494140625ZM18.083251953125,20.020843505859375C18.083251953125,18.594085693359375,16.9267578125,17.4375,15.5,17.4375C14.0732421875,17.4375,12.916748046875,18.594085693359375,12.916748046875,20.020843505859375C12.916748046875,21.44757080078125,14.0732421875,22.604156494140625,15.5,22.604156494140625C16.9267578125,22.604156494140625,18.083251953125,21.44757080078125,18.083251953125,20.020843505859375Z" style="fill: rgb(255, 255, 255); fill-opacity: 1;"/></g><g id="strokes-40ddfdc8-4770-8016-8006-73565d2196bb-e626f4e5-2a37-80b7-8006-734b5ca820d3" class="strokes"><g class="inner-stroke-shape"><defs><clipPath id="inner-stroke-render-3-e626f4e5-2a37-80b7-8006-734b5ca820d3-0"><use href="#stroke-shape-render-3-e626f4e5-2a37-80b7-8006-734b5ca820d3-0"/></clipPath><path d="M5.166748046875,7.75C5.166748046875,7.03662109375,5.7449951171875,6.458343505859375,6.458251953125,6.458343505859375L8.1800537109375,6.458343505859375L8.7470703125,4.758514404296875C8.9229736328125,4.23077392578125,9.416748046875,3.8748779296875,9.972900390625,3.875L16.791748046875,3.875C16.791748046875,3.16162109375,17.3699951171875,2.583343505859375,18.083251953125,2.583343505859375L19.375,2.583343505859375C20.08837890625,2.583343505859375,20.666748046875,3.16162109375,20.666748046875,3.875L21.027099609375,3.875C21.583251953125,3.8748779296875,22.0770263671875,4.23077392578125,22.2529296875,4.758514404296875L22.8199462890625,6.458343505859375L24.541748046875,6.458343505859375C25.2550048828125,6.458343505859375,25.833251953125,7.03662109375,25.833251953125,7.75C25.833251953125,8.46337890625,25.2550048828125,9.041656494140625,24.541748046875,9.041656494140625L6.458251953125,9.041656494140625C5.7449951171875,9.041656494140625,5.166748046875,8.46337890625,5.166748046875,7.75ZM19.558349609375,28.416656494140625L11.441650390625,28.416656494140625C10.80419921875,28.41644287109375,10.26220703125,27.9512939453125,10.1654052734375,27.32135009765625L7.75,11.625L23.25,11.625L20.8345947265625,27.32135009765625C20.73779296875,27.9512939453125,20.19580078125,28.41644287109375,19.558349609375,28.416656494140625ZM18.083251953125,20.020843505859375C18.083251953125,18.594085693359375,16.9267578125,17.4375,15.5,17.4375C14.0732421875,17.4375,12.916748046875,18.594085693359375,12.916748046875,20.020843505859375C12.916748046875,21.44757080078125,14.0732421875,22.604156494140625,15.5,22.604156494140625C16.9267578125,22.604156494140625,18.083251953125,21.44757080078125,18.083251953125,20.020843505859375Z" id="stroke-shape-render-3-e626f4e5-2a37-80b7-8006-734b5ca820d3-0" style="fill: none; stroke-width: 2; stroke: rgb(255, 255, 255); stroke-opacity: 1;"/></defs><use href="#stroke-shape-render-3-e626f4e5-2a37-80b7-8006-734b5ca820d3-0" clip-path="url('#inner-stroke-render-3-e626f4e5-2a37-80b7-8006-734b5ca820d3-0')"/></g></g></g></g></svg>