<svg width="35" xmlns="http://www.w3.org/2000/svg" height="35" id="screenshot-e626f4e5-2a37-80b7-8006-7347ecd4b90b" viewBox="0 0 35 35" xmlns:xlink="http://www.w3.org/1999/xlink" fill="none" version="1.1"><g id="shape-e626f4e5-2a37-80b7-8006-7347ecd4b90b" width="800" height="800" rx="0" ry="0" style="fill: rgb(0, 0, 0);"><g id="shape-e626f4e5-2a37-80b7-8006-7347ecd52d86" style="display: none;"><g class="fills" id="fills-e626f4e5-2a37-80b7-8006-7347ecd52d86"><rect width="35" height="34.97696414152142" x="-0.011517929239289515" transform="matrix(0.000000, 1.000000, -1.000000, 0.000000, 34.988482, 0.011518)" style="fill: none;" ry="0" fill="none" rx="0" y="0.011517929239289515"/></g></g><g id="shape-e626f4e5-2a37-80b7-8006-7347ecd5b33d"><g class="fills" id="fills-e626f4e5-2a37-80b7-8006-7347ecd5b33d"><path d="M32.1197509765625,15.855010986328125C32.508056640625,15.4052734375,33.1090087890625,15.200836181640625,33.690673828125,15.320632934570312C34.2724609375,15.440399169921875,34.7440185546875,15.865646362304688,34.92333984375,16.4322509765625C35.1026611328125,16.998855590820312,34.9617919921875,17.618194580078125,34.5550537109375,18.051239013671875L29.636474609375,23.519996643066406C29.325439453125,23.865020751953125,28.883056640625,24.061965942382812,28.4188232421875,24.061965942382812C27.9544677734375,24.061965942382812,27.5120849609375,23.865020751953125,27.201171875,23.519996643066406L22.282470703125,18.051239013671875C21.6990966796875,17.375747680664062,21.762939453125,16.35760498046875,22.425537109375,15.75994873046875C23.088134765625,15.162307739257812,24.106689453125,15.204559326171875,24.7177734375,15.855010986328125L27.255859375,18.6768798828125C27.78369140625,14.2823486328125,25.3157958984375,10.075576782226562,21.2236328125,8.395156860351562C17.1317138671875,6.7147216796875,12.4219970703125,7.9738922119140625,9.712646484375,11.47271728515625C7.0035400390625,14.97149658203125,6.9610595703125,19.849456787109375,9.609130859375,23.39484405517578C12.257080078125,26.94025421142578,16.944091796875,28.281166076660156,21.0648193359375,26.67218780517578C21.61083984375,26.458831787109375,22.2291259765625,26.553123474121094,22.6865234375,26.919540405273438C23.1441650390625,27.28594970703125,23.371826171875,27.86882781982422,23.283447265625,28.448593139648438C23.1951904296875,29.028366088867188,22.804443359375,29.5169677734375,22.258544921875,29.730316162109375C16.8966064453125,31.82488250732422,10.796875,30.176788330078125,7.21728515625,25.666473388671875C3.6378173828125,21.156158447265625,3.4149169921875,14.837539672851562,6.6678466796875,10.086029052734375C9.921142578125,5.334503173828125,15.8897705078125,3.2603759765625,21.3856201171875,4.9716796875C26.8814697265625,6.6829833984375,30.6202392578125,11.77978515625,30.6048583984375,17.53936767578125L32.1197509765625,15.855010986328125Z" style="fill: rgb(255, 255, 255); fill-opacity: 1;"/></g><g id="strokes-98745ceb-bdcb-80e0-8006-735c81f4dba0-e626f4e5-2a37-80b7-8006-7347ecd5b33d" class="strokes"><g class="inner-stroke-shape"><defs><clipPath id="inner-stroke-render-3-e626f4e5-2a37-80b7-8006-7347ecd5b33d-0"><use href="#stroke-shape-render-3-e626f4e5-2a37-80b7-8006-7347ecd5b33d-0"/></clipPath><path d="M32.1197509765625,15.855010986328125C32.508056640625,15.4052734375,33.1090087890625,15.200836181640625,33.690673828125,15.320632934570312C34.2724609375,15.440399169921875,34.7440185546875,15.865646362304688,34.92333984375,16.4322509765625C35.1026611328125,16.998855590820312,34.9617919921875,17.618194580078125,34.5550537109375,18.051239013671875L29.636474609375,23.519996643066406C29.325439453125,23.865020751953125,28.883056640625,24.061965942382812,28.4188232421875,24.061965942382812C27.9544677734375,24.061965942382812,27.5120849609375,23.865020751953125,27.201171875,23.519996643066406L22.282470703125,18.051239013671875C21.6990966796875,17.375747680664062,21.762939453125,16.35760498046875,22.425537109375,15.75994873046875C23.088134765625,15.162307739257812,24.106689453125,15.204559326171875,24.7177734375,15.855010986328125L27.255859375,18.6768798828125C27.78369140625,14.2823486328125,25.3157958984375,10.075576782226562,21.2236328125,8.395156860351562C17.1317138671875,6.7147216796875,12.4219970703125,7.9738922119140625,9.712646484375,11.47271728515625C7.0035400390625,14.97149658203125,6.9610595703125,19.849456787109375,9.609130859375,23.39484405517578C12.257080078125,26.94025421142578,16.944091796875,28.281166076660156,21.0648193359375,26.67218780517578C21.61083984375,26.458831787109375,22.2291259765625,26.553123474121094,22.6865234375,26.919540405273438C23.1441650390625,27.28594970703125,23.371826171875,27.86882781982422,23.283447265625,28.448593139648438C23.1951904296875,29.028366088867188,22.804443359375,29.5169677734375,22.258544921875,29.730316162109375C16.8966064453125,31.82488250732422,10.796875,30.176788330078125,7.21728515625,25.666473388671875C3.6378173828125,21.156158447265625,3.4149169921875,14.837539672851562,6.6678466796875,10.086029052734375C9.921142578125,5.334503173828125,15.8897705078125,3.2603759765625,21.3856201171875,4.9716796875C26.8814697265625,6.6829833984375,30.6202392578125,11.77978515625,30.6048583984375,17.53936767578125L32.1197509765625,15.855010986328125Z" id="stroke-shape-render-3-e626f4e5-2a37-80b7-8006-7347ecd5b33d-0" style="fill: none; stroke-width: 2; stroke: rgb(255, 255, 255); stroke-opacity: 1;"/></defs><use href="#stroke-shape-render-3-e626f4e5-2a37-80b7-8006-7347ecd5b33d-0" clip-path="url('#inner-stroke-render-3-e626f4e5-2a37-80b7-8006-7347ecd5b33d-0')"/></g></g></g></g></svg>