<svg width="30" xmlns="http://www.w3.org/2000/svg" height="30" id="screenshot-e626f4e5-2a37-80b7-8006-734921269ada" viewBox="0 0 30 30" xmlns:xlink="http://www.w3.org/1999/xlink" fill="none" version="1.1"><g id="shape-e626f4e5-2a37-80b7-8006-734921269ada" width="800" height="800" rx="0" ry="0" style="fill: rgb(0, 0, 0);"><g id="shape-e626f4e5-2a37-80b7-8006-734921269adb" style="display: none;"><g class="fills" id="fills-e626f4e5-2a37-80b7-8006-734921269adb"><rect width="30" height="30" x="0" transform="matrix(1.000000, 0.000000, 0.000000, 1.000000, 0.000000, 0.000000)" style="fill: none;" ry="0" fill="none" rx="0" y="0"/></g></g><g id="shape-e626f4e5-2a37-80b7-8006-734921269adc"><g class="fills" id="fills-e626f4e5-2a37-80b7-8006-734921269adc"><path d="M17.848388671875,2.6903076171875C17.385498046875,2.5,16.798583984375,2.5,15.625,2.5C14.451416015625,2.5,13.864501953125,2.5,13.4013671875,2.6903076171875C12.7841796875,2.94403076171875,12.2939453125,3.43072509765625,12.038330078125,4.04327392578125C11.92138671875,4.32293701171875,11.8759765625,4.64813232421875,11.85791015625,5.122467041015625C11.831787109375,5.819580078125,11.4716796875,6.46484375,10.862548828125,6.81365966796875C10.25390625,7.162445068359375,9.5107421875,7.149444580078125,8.889404296875,6.823455810546875C8.466552734375,6.60162353515625,8.159912109375,6.478271484375,7.857421875,6.438812255859375C7.195068359375,6.35223388671875,6.525146484375,6.530364990234375,5.9951171875,6.93402099609375C5.59765625,7.236724853515625,5.30419921875,7.741119384765625,4.717529296875,8.74993896484375C4.130615234375,9.758697509765625,3.837158203125,10.263092041015625,3.771728515625,10.756134033203125C3.684326171875,11.413482666015625,3.86376953125,12.07830810546875,4.270751953125,12.6043701171875C4.456298828125,12.844512939453125,4.717041015625,13.0462646484375,5.1220703125,13.29876708984375C5.717529296875,13.670013427734375,6.100341796875,14.3023681640625,6.100341796875,15C6.100341796875,15.6976318359375,5.717529296875,16.329864501953125,5.1220703125,16.701019287109375C4.717041015625,16.953643798828125,4.456298828125,17.155487060546875,4.270751953125,17.3956298828125C3.86376953125,17.921630859375,3.684326171875,18.586395263671875,3.771728515625,19.243743896484375C3.837158203125,19.73675537109375,4.130126953125,20.241241455078125,4.717041015625,21.25C5.30419921875,22.258758544921875,5.59765625,22.76324462890625,5.9951171875,23.065887451171875C6.525146484375,23.469512939453125,7.195068359375,23.647613525390625,7.857421875,23.561126708984375C8.159912109375,23.521636962890625,8.466064453125,23.398223876953125,8.88916015625,23.176483154296875C9.510498046875,22.850494384765625,10.25390625,22.837493896484375,10.862548828125,23.186248779296875C11.4716796875,23.535125732421875,11.831787109375,24.180389404296875,11.85791015625,24.87762451171875C11.8759765625,25.35186767578125,11.92138671875,25.6771240234375,12.038330078125,25.956756591796875C12.2939453125,26.569244384765625,12.7841796875,27.055999755859375,13.4013671875,27.30975341796875C13.864501953125,27.5,14.451416015625,27.5,15.625,27.5C16.798583984375,27.5,17.385498046875,27.5,17.848388671875,27.30975341796875C18.4658203125,27.055999755859375,18.955810546875,26.569244384765625,19.211669921875,25.956756591796875C19.32861328125,25.6771240234375,19.37451171875,25.35186767578125,19.39208984375,24.877532958984375C19.41845703125,24.180389404296875,19.778564453125,23.535125732421875,20.38720703125,23.186248779296875C20.99609375,22.837371826171875,21.739013671875,22.850494384765625,22.36083984375,23.176483154296875C22.783447265625,23.398223876953125,23.090087890625,23.521484375,23.392822265625,23.561004638671875C24.054931640625,23.647613525390625,24.724609375,23.469512939453125,25.254638671875,23.065887451171875C25.652587890625,22.763153076171875,25.94580078125,22.258758544921875,26.532470703125,21.2498779296875C27.119384765625,20.241119384765625,27.4130859375,19.73675537109375,27.478271484375,19.243743896484375C27.565673828125,18.586395263671875,27.385986328125,17.921478271484375,26.979248046875,17.3955078125C26.79345703125,17.1553955078125,26.532958984375,16.9534912109375,26.127685546875,16.701019287109375C25.532470703125,16.329864501953125,25.1494140625,15.697540283203125,25.1494140625,14.999908447265625C25.1494140625,14.302276611328125,25.532470703125,13.670135498046875,26.127685546875,13.298980712890625C26.532958984375,13.046356201171875,26.7939453125,12.8446044921875,26.979248046875,12.6043701171875C27.385986328125,12.078399658203125,27.565673828125,11.41357421875,27.478515625,10.7562255859375C27.4130859375,10.263153076171875,27.11962890625,9.7587890625,26.532958984375,8.75C25.94580078125,7.7412109375,25.652587890625,7.23681640625,25.254638671875,6.934112548828125C24.724609375,6.53045654296875,24.054931640625,6.352325439453125,23.392822265625,6.438873291015625C23.090087890625,6.478363037109375,22.783447265625,6.601715087890625,22.36083984375,6.823516845703125C21.739501953125,7.149505615234375,20.99609375,7.162506103515625,20.38720703125,6.813690185546875C19.77880859375,6.464874267578125,19.41845703125,5.819580078125,19.39208984375,5.122406005859375C19.3740234375,4.648101806640625,19.32861328125,4.32293701171875,19.211669921875,4.04327392578125C18.955810546875,3.43072509765625,18.4658203125,2.94403076171875,17.848388671875,2.6903076171875ZM15.625,18.75C17.7119140625,18.75,19.4033203125,17.07110595703125,19.4033203125,15C19.4033203125,12.92889404296875,17.7119140625,11.25,15.625,11.25C13.538330078125,11.25,11.846435546875,12.92889404296875,11.846435546875,15C11.846435546875,17.07110595703125,13.538330078125,18.75,15.625,18.75Z" fill-rule="evenodd" clip-rule="evenodd" style="fill: rgb(255, 255, 255); fill-opacity: 1;"/></g></g></g></svg>