<svg width="35" xmlns="http://www.w3.org/2000/svg" height="35" id="screenshot-e626f4e5-2a37-80b7-8006-734a42c7cf0e" viewBox="0 0 35 35" xmlns:xlink="http://www.w3.org/1999/xlink" fill="none" version="1.1"><g id="shape-e626f4e5-2a37-80b7-8006-734a42c7cf0e" width="800" height="800" rx="0" ry="0" style="fill: rgb(0, 0, 0);"><g id="shape-e626f4e5-2a37-80b7-8006-734a42c8fe54" style="display: none;"><g class="fills" id="fills-e626f4e5-2a37-80b7-8006-734a42c8fe54"><rect width="35" height="35" x="0" transform="matrix(1.000000, 0.000000, 0.000000, 1.000000, 0.000000, 0.000000)" style="fill: none;" ry="0" fill="none" rx="0" y="0"/></g><g fill="none" id="strokes-e3340482-4191-80f1-8006-7355bdad98b9-e626f4e5-2a37-80b7-8006-734a42c8fe54" class="strokes"><g class="stroke-shape"><rect rx="0" ry="0" x="0" y="0" transform="matrix(1.000000, 0.000000, 0.000000, 1.000000, 0.000000, 0.000000)" width="35" height="35" style="fill: none; stroke-width: 1; stroke: rgb(0, 0, 0); stroke-opacity: 1;"/></g></g></g><g id="shape-e626f4e5-2a37-80b7-8006-734a42c9670b"><g class="fills" id="fills-e626f4e5-2a37-80b7-8006-734a42c9670b"><path d="M14.5833740234375,29.166656494140625L10.2083740234375,29.166656494140625M26.25,24.791656494140625L23.3333740234375,24.791656494140625M18.958740234375,13.125L9.0419921875,13.125C7.408447265625,13.125,6.5911865234375,13.125,5.9671630859375,13.442901611328125C5.4183349609375,13.7225341796875,4.97265625,14.16839599609375,4.6929931640625,14.717193603515625C4.375,15.341064453125,4.375,16.158477783203125,4.375,17.791961669921875L4.375,20.12530517578125C4.375,21.7587890625,4.375,22.57440185546875,4.6929931640625,23.19830322265625C4.97265625,23.7470703125,5.4183349609375,24.194488525390625,5.9671630859375,24.474029541015625C6.5904541015625,24.791656494140625,7.4068603515625,24.791656494140625,9.037109375,24.791656494140625L18.95849609375,24.791656494140625M18.958740234375,13.125L18.9583740234375,24.50030517578125C18.9583740234375,24.6004638671875,18.9583740234375,24.69744873046875,18.95849609375,24.791656494140625M18.958740234375,13.125L18.9583740234375,10.50030517578125C18.9583740234375,8.8668212890625,18.9583740234375,8.0494384765625,19.2762451171875,7.425537109375C19.5557861328125,6.876708984375,20.001708984375,6.43084716796875,20.550537109375,6.1512451171875C21.1744384765625,5.833343505859375,21.9918212890625,5.833343505859375,23.625244140625,5.833343505859375L25.9586181640625,5.833343505859375C27.592041015625,5.833343505859375,28.40771484375,5.833343505859375,29.031494140625,6.1512451171875C29.580322265625,6.43084716796875,30.0277099609375,6.876708984375,30.307373046875,7.425537109375C30.625,8.048828125,30.625,8.86517333984375,30.625,10.4954833984375L30.625,24.5045166015625C30.625,26.134796142578125,30.625,26.95001220703125,30.307373046875,27.57330322265625C30.0277099609375,28.1220703125,29.580322265625,28.569488525390625,29.031494140625,28.849029541015625C28.4083251953125,29.166656494140625,27.5931396484375,29.166656494140625,25.962890625,29.166656494140625L23.6204833984375,29.166656494140625C21.990234375,29.166656494140625,21.173828125,29.166656494140625,20.550537109375,28.849029541015625C20.001708984375,28.569488525390625,19.5557861328125,28.1220703125,19.2762451171875,27.57330322265625C18.9779052734375,26.98760986328125,18.9595947265625,26.23309326171875,18.95849609375,24.791656494140625M24.7945556640625,10.208343505859375L24.7945556640625,10.21124267578125L24.7916259765625,10.211181640625L24.7916259765625,10.208343505859375L24.7945556640625,10.208343505859375Z" fill="none" stroke-linecap="round" stroke-linejoin="round" style="fill: none;"/></g><g fill="none" stroke-linecap="round" stroke-linejoin="round" id="strokes-e3340482-4191-80f1-8006-7355bdaeba31-e626f4e5-2a37-80b7-8006-734a42c9670b" class="strokes"><g class="stroke-shape"><path d="M14.5833740234375,29.166656494140625L10.2083740234375,29.166656494140625M26.25,24.791656494140625L23.3333740234375,24.791656494140625M18.958740234375,13.125L9.0419921875,13.125C7.408447265625,13.125,6.5911865234375,13.125,5.9671630859375,13.442901611328125C5.4183349609375,13.7225341796875,4.97265625,14.16839599609375,4.6929931640625,14.717193603515625C4.375,15.341064453125,4.375,16.158477783203125,4.375,17.791961669921875L4.375,20.12530517578125C4.375,21.7587890625,4.375,22.57440185546875,4.6929931640625,23.19830322265625C4.97265625,23.7470703125,5.4183349609375,24.194488525390625,5.9671630859375,24.474029541015625C6.5904541015625,24.791656494140625,7.4068603515625,24.791656494140625,9.037109375,24.791656494140625L18.95849609375,24.791656494140625M18.958740234375,13.125L18.9583740234375,24.50030517578125C18.9583740234375,24.6004638671875,18.9583740234375,24.69744873046875,18.95849609375,24.791656494140625M18.958740234375,13.125L18.9583740234375,10.50030517578125C18.9583740234375,8.8668212890625,18.9583740234375,8.0494384765625,19.2762451171875,7.425537109375C19.5557861328125,6.876708984375,20.001708984375,6.43084716796875,20.550537109375,6.1512451171875C21.1744384765625,5.833343505859375,21.9918212890625,5.833343505859375,23.625244140625,5.833343505859375L25.9586181640625,5.833343505859375C27.592041015625,5.833343505859375,28.40771484375,5.833343505859375,29.031494140625,6.1512451171875C29.580322265625,6.43084716796875,30.0277099609375,6.876708984375,30.307373046875,7.425537109375C30.625,8.048828125,30.625,8.86517333984375,30.625,10.4954833984375L30.625,24.5045166015625C30.625,26.134796142578125,30.625,26.95001220703125,30.307373046875,27.57330322265625C30.0277099609375,28.1220703125,29.580322265625,28.569488525390625,29.031494140625,28.849029541015625C28.4083251953125,29.166656494140625,27.5931396484375,29.166656494140625,25.962890625,29.166656494140625L23.6204833984375,29.166656494140625C21.990234375,29.166656494140625,21.173828125,29.166656494140625,20.550537109375,28.849029541015625C20.001708984375,28.569488525390625,19.5557861328125,28.1220703125,19.2762451171875,27.57330322265625C18.9779052734375,26.98760986328125,18.9595947265625,26.23309326171875,18.95849609375,24.791656494140625M24.7945556640625,10.208343505859375L24.7945556640625,10.21124267578125L24.7916259765625,10.211181640625L24.7916259765625,10.208343505859375L24.7945556640625,10.208343505859375Z" style="fill: none; stroke-width: 3; stroke: rgb(255, 255, 255); stroke-opacity: 1;"/></g></g></g></g></svg>